<?xml version="1.0" encoding="utf-8" standalone="no"?>
<!DOCTYPE svg PUBLIC "-//W3C//DTD SVG 1.1//EN"
  "http://www.w3.org/Graphics/SVG/1.1/DTD/svg11.dtd">
<svg xmlns:xlink="http://www.w3.org/1999/xlink" width="730.202188pt" height="368.193198pt" viewBox="0 0 730.202188 368.193198" xmlns="http://www.w3.org/2000/svg" version="1.1">
 <metadata>
  <rdf:RDF xmlns:dc="http://purl.org/dc/elements/1.1/" xmlns:cc="http://creativecommons.org/ns#" xmlns:rdf="http://www.w3.org/1999/02/22-rdf-syntax-ns#">
   <cc:Work>
    <dc:type rdf:resource="http://purl.org/dc/dcmitype/StillImage"/>
    <dc:date>2023-04-21T09:57:30.488677</dc:date>
    <dc:format>image/svg+xml</dc:format>
    <dc:creator>
     <cc:Agent>
      <dc:title>Matplotlib v3.7.1, https://matplotlib.org/</dc:title>
     </cc:Agent>
    </dc:creator>
   </cc:Work>
  </rdf:RDF>
 </metadata>
 <defs>
  <style type="text/css">*{stroke-linejoin: round; stroke-linecap: butt}</style>
 </defs>
 <g id="figure_1">
  <g id="patch_1">
   <path d="M 0 368.193198 
L 730.202188 368.193198 
L 730.202188 0 
L 0 0 
z
" style="fill: #ffffff"/>
  </g>
  <g id="axes_1">
   <g id="patch_2">
    <path d="M 53.402188 159.993354 
L 723.002187 159.993354 
L 723.002187 8.793354 
L 53.402188 8.793354 
z
" style="fill: #ffffff"/>
   </g>
   <g id="matplotlib.axis_1">
    <g id="xtick_1"/>
    <g id="xtick_2"/>
    <g id="xtick_3"/>
    <g id="xtick_4"/>
    <g id="xtick_5"/>
    <g id="xtick_6"/>
    <g id="xtick_7"/>
    <g id="xtick_8"/>
    <g id="xtick_9"/>
    <g id="xtick_10"/>
    <g id="xtick_11"/>
    <g id="xtick_12"/>
    <g id="xtick_13"/>
    <g id="xtick_14"/>
    <g id="xtick_15"/>
    <g id="xtick_16"/>
    <g id="xtick_17"/>
    <g id="xtick_18"/>
    <g id="xtick_19"/>
    <g id="xtick_20"/>
    <g id="xtick_21"/>
    <g id="xtick_22"/>
    <g id="xtick_23"/>
    <g id="xtick_24"/>
    <g id="xtick_25"/>
    <g id="xtick_26"/>
    <g id="xtick_27"/>
    <g id="xtick_28"/>
    <g id="xtick_29"/>
    <g id="xtick_30"/>
   </g>
   <g id="matplotlib.axis_2">
    <g id="ytick_1">
     <g id="text_1">
      <!-- 0 -->
      <g style="fill: #262626" transform="translate(37.785156 157.057423) scale(0.11 -0.11)">
       <defs>
        <path id="ArialMT-30" d="M 266 2259 
Q 266 3072 433 3567 
Q 600 4063 929 4331 
Q 1259 4600 1759 4600 
Q 2128 4600 2406 4451 
Q 2684 4303 2865 4023 
Q 3047 3744 3150 3342 
Q 3253 2941 3253 2259 
Q 3253 1453 3087 958 
Q 2922 463 2592 192 
Q 2263 -78 1759 -78 
Q 1097 -78 719 397 
Q 266 969 266 2259 
z
M 844 2259 
Q 844 1131 1108 757 
Q 1372 384 1759 384 
Q 2147 384 2411 759 
Q 2675 1134 2675 2259 
Q 2675 3391 2411 3762 
Q 2147 4134 1753 4134 
Q 1366 4134 1134 3806 
Q 844 3388 844 2259 
z
" transform="scale(0.015625)"/>
       </defs>
       <use xlink:href="#ArialMT-30"/>
      </g>
     </g>
    </g>
    <g id="ytick_2">
     <g id="text_2">
      <!-- 2000 -->
      <g style="fill: #262626" transform="translate(19.434063 128.660657) scale(0.11 -0.11)">
       <defs>
        <path id="ArialMT-32" d="M 3222 541 
L 3222 0 
L 194 0 
Q 188 203 259 391 
Q 375 700 629 1000 
Q 884 1300 1366 1694 
Q 2113 2306 2375 2664 
Q 2638 3022 2638 3341 
Q 2638 3675 2398 3904 
Q 2159 4134 1775 4134 
Q 1369 4134 1125 3890 
Q 881 3647 878 3216 
L 300 3275 
Q 359 3922 746 4261 
Q 1134 4600 1788 4600 
Q 2447 4600 2831 4234 
Q 3216 3869 3216 3328 
Q 3216 3053 3103 2787 
Q 2991 2522 2730 2228 
Q 2469 1934 1863 1422 
Q 1356 997 1212 845 
Q 1069 694 975 541 
L 3222 541 
z
" transform="scale(0.015625)"/>
       </defs>
       <use xlink:href="#ArialMT-32"/>
       <use xlink:href="#ArialMT-30" x="55.615234"/>
       <use xlink:href="#ArialMT-30" x="111.230469"/>
       <use xlink:href="#ArialMT-30" x="166.845703"/>
      </g>
     </g>
    </g>
    <g id="ytick_3">
     <g id="text_3">
      <!-- 4000 -->
      <g style="fill: #262626" transform="translate(19.434063 100.263892) scale(0.11 -0.11)">
       <defs>
        <path id="ArialMT-34" d="M 2069 0 
L 2069 1097 
L 81 1097 
L 81 1613 
L 2172 4581 
L 2631 4581 
L 2631 1613 
L 3250 1613 
L 3250 1097 
L 2631 1097 
L 2631 0 
L 2069 0 
z
M 2069 1613 
L 2069 3678 
L 634 1613 
L 2069 1613 
z
" transform="scale(0.015625)"/>
       </defs>
       <use xlink:href="#ArialMT-34"/>
       <use xlink:href="#ArialMT-30" x="55.615234"/>
       <use xlink:href="#ArialMT-30" x="111.230469"/>
       <use xlink:href="#ArialMT-30" x="166.845703"/>
      </g>
     </g>
    </g>
    <g id="ytick_4">
     <g id="text_4">
      <!-- 6000 -->
      <g style="fill: #262626" transform="translate(19.434063 71.867126) scale(0.11 -0.11)">
       <defs>
        <path id="ArialMT-36" d="M 3184 3459 
L 2625 3416 
Q 2550 3747 2413 3897 
Q 2184 4138 1850 4138 
Q 1581 4138 1378 3988 
Q 1113 3794 959 3422 
Q 806 3050 800 2363 
Q 1003 2672 1297 2822 
Q 1591 2972 1913 2972 
Q 2475 2972 2870 2558 
Q 3266 2144 3266 1488 
Q 3266 1056 3080 686 
Q 2894 316 2569 119 
Q 2244 -78 1831 -78 
Q 1128 -78 684 439 
Q 241 956 241 2144 
Q 241 3472 731 4075 
Q 1159 4600 1884 4600 
Q 2425 4600 2770 4297 
Q 3116 3994 3184 3459 
z
M 888 1484 
Q 888 1194 1011 928 
Q 1134 663 1356 523 
Q 1578 384 1822 384 
Q 2178 384 2434 671 
Q 2691 959 2691 1453 
Q 2691 1928 2437 2201 
Q 2184 2475 1800 2475 
Q 1419 2475 1153 2201 
Q 888 1928 888 1484 
z
" transform="scale(0.015625)"/>
       </defs>
       <use xlink:href="#ArialMT-36"/>
       <use xlink:href="#ArialMT-30" x="55.615234"/>
       <use xlink:href="#ArialMT-30" x="111.230469"/>
       <use xlink:href="#ArialMT-30" x="166.845703"/>
      </g>
     </g>
    </g>
    <g id="ytick_5">
     <g id="text_5">
      <!-- 8000 -->
      <g style="fill: #262626" transform="translate(19.434063 43.47036) scale(0.11 -0.11)">
       <defs>
        <path id="ArialMT-38" d="M 1131 2484 
Q 781 2613 612 2850 
Q 444 3088 444 3419 
Q 444 3919 803 4259 
Q 1163 4600 1759 4600 
Q 2359 4600 2725 4251 
Q 3091 3903 3091 3403 
Q 3091 3084 2923 2848 
Q 2756 2613 2416 2484 
Q 2838 2347 3058 2040 
Q 3278 1734 3278 1309 
Q 3278 722 2862 322 
Q 2447 -78 1769 -78 
Q 1091 -78 675 323 
Q 259 725 259 1325 
Q 259 1772 486 2073 
Q 713 2375 1131 2484 
z
M 1019 3438 
Q 1019 3113 1228 2906 
Q 1438 2700 1772 2700 
Q 2097 2700 2305 2904 
Q 2513 3109 2513 3406 
Q 2513 3716 2298 3927 
Q 2084 4138 1766 4138 
Q 1444 4138 1231 3931 
Q 1019 3725 1019 3438 
z
M 838 1322 
Q 838 1081 952 856 
Q 1066 631 1291 507 
Q 1516 384 1775 384 
Q 2178 384 2440 643 
Q 2703 903 2703 1303 
Q 2703 1709 2433 1975 
Q 2163 2241 1756 2241 
Q 1359 2241 1098 1978 
Q 838 1716 838 1322 
z
" transform="scale(0.015625)"/>
       </defs>
       <use xlink:href="#ArialMT-38"/>
       <use xlink:href="#ArialMT-30" x="55.615234"/>
       <use xlink:href="#ArialMT-30" x="111.230469"/>
       <use xlink:href="#ArialMT-30" x="166.845703"/>
      </g>
     </g>
    </g>
    <g id="ytick_6">
     <g id="text_6">
      <!-- 10000 -->
      <g style="fill: #262626" transform="translate(13.317031 15.073594) scale(0.11 -0.11)">
       <defs>
        <path id="ArialMT-31" d="M 2384 0 
L 1822 0 
L 1822 3584 
Q 1619 3391 1289 3197 
Q 959 3003 697 2906 
L 697 3450 
Q 1169 3672 1522 3987 
Q 1875 4303 2022 4600 
L 2384 4600 
L 2384 0 
z
" transform="scale(0.015625)"/>
       </defs>
       <use xlink:href="#ArialMT-31"/>
       <use xlink:href="#ArialMT-30" x="55.615234"/>
       <use xlink:href="#ArialMT-30" x="111.230469"/>
       <use xlink:href="#ArialMT-30" x="166.845703"/>
       <use xlink:href="#ArialMT-30" x="222.460938"/>
      </g>
     </g>
    </g>
   </g>
   <g id="line2d_1">
    <path d="M 53.402188 153.106428 
L 63.547642 152.325517 
L 73.693097 143.763892 
L 83.838551 140.072313 
L 93.984006 124.63867 
L 104.12946 132.518773 
L 114.274915 138.624077 
L 124.420369 137.98515 
L 134.565824 140.611851 
L 144.711278 142.954584 
L 154.856733 145.084342 
L 165.002188 147.725241 
L 175.147642 143.820686 
L 185.293097 144.459613 
L 195.438551 147.782035 
L 205.584006 140.171701 
L 215.72946 147.980812 
L 225.874915 149.187674 
L 236.020369 147.853026 
L 246.165824 144.92816 
L 256.311278 150.706901 
L 266.456733 151.544606 
L 276.602188 149.429047 
L 286.747642 145.4535 
L 296.893097 146.560974 
L 307.038551 146.163419 
L 317.184006 147.086314 
L 327.32946 145.993038 
L 337.474915 145.240524 
L 347.620369 140.569256 
L 357.765824 138.283316 
L 367.911278 139.333997 
L 378.056733 144.374423 
L 388.202188 146.248609 
L 398.347642 147.90982 
L 408.493097 148.9605 
L 418.638551 15.666081 
L 428.784006 148.307375 
L 438.92946 149.443245 
L 449.074915 150.053776 
L 459.220369 148.87531 
L 469.365824 151.68659 
L 479.511278 151.643995 
L 489.656733 152.595286 
L 499.802188 151.189646 
L 509.947642 148.023407 
L 520.093097 151.516209 
L 530.238551 151.899566 
L 540.384006 145.396706 
L 550.52946 149.045691 
L 560.674915 145.709071 
L 570.820369 150.167363 
L 580.965824 151.658193 
L 591.111278 152.069946 
L 601.256733 151.885367 
L 611.402188 152.084145 
L 621.547642 152.82246 
L 631.693097 152.907651 
L 641.838551 152.666278 
L 651.984006 152.467501 
L 662.12946 152.410707 
L 672.274915 152.708873 
L 682.420369 152.609485 
L 692.565824 153.106428 
L 702.711278 152.82246 
L 712.856733 152.382311 
L 723.002188 153.120626 
" clip-path="url(#p4b1cb92d95)" style="fill: none; stroke: #4c72b0; stroke-width: 1.5; stroke-linecap: round"/>
   </g>
   <g id="patch_3">
    <path d="M 53.402188 159.993354 
L 53.402188 8.793354 
" style="fill: none; stroke: #cccccc; stroke-width: 1.25; stroke-linejoin: miter; stroke-linecap: square"/>
   </g>
   <g id="patch_4">
    <path d="M 53.402188 159.993354 
L 723.002188 159.993354 
" style="fill: none; stroke: #cccccc; stroke-width: 1.25; stroke-linejoin: miter; stroke-linecap: square"/>
   </g>
   <g id="legend_1">
    <g id="patch_5">
     <path d="M 600.01875 33.153198 
L 715.302187 33.153198 
Q 717.502187 33.153198 717.502187 30.953198 
L 717.502187 16.493354 
Q 717.502187 14.293354 715.302187 14.293354 
L 600.01875 14.293354 
Q 597.81875 14.293354 597.81875 16.493354 
L 597.81875 30.953198 
Q 597.81875 33.153198 600.01875 33.153198 
z
" style="fill: #ffffff; opacity: 0.8; stroke: #cccccc; stroke-linejoin: miter"/>
    </g>
    <g id="line2d_2">
     <path d="M 602.21875 22.716948 
L 613.21875 22.716948 
L 624.21875 22.716948 
" style="fill: none; stroke: #4c72b0; stroke-width: 1.5; stroke-linecap: round"/>
    </g>
    <g id="text_7">
     <!-- Nuevas Muertes -->
     <g style="fill: #262626" transform="translate(633.01875 26.566948) scale(0.11 -0.11)">
      <defs>
       <path id="ArialMT-4e" d="M 488 0 
L 488 4581 
L 1109 4581 
L 3516 984 
L 3516 4581 
L 4097 4581 
L 4097 0 
L 3475 0 
L 1069 3600 
L 1069 0 
L 488 0 
z
" transform="scale(0.015625)"/>
       <path id="ArialMT-75" d="M 2597 0 
L 2597 488 
Q 2209 -75 1544 -75 
Q 1250 -75 995 37 
Q 741 150 617 320 
Q 494 491 444 738 
Q 409 903 409 1263 
L 409 3319 
L 972 3319 
L 972 1478 
Q 972 1038 1006 884 
Q 1059 663 1231 536 
Q 1403 409 1656 409 
Q 1909 409 2131 539 
Q 2353 669 2445 892 
Q 2538 1116 2538 1541 
L 2538 3319 
L 3100 3319 
L 3100 0 
L 2597 0 
z
" transform="scale(0.015625)"/>
       <path id="ArialMT-65" d="M 2694 1069 
L 3275 997 
Q 3138 488 2766 206 
Q 2394 -75 1816 -75 
Q 1088 -75 661 373 
Q 234 822 234 1631 
Q 234 2469 665 2931 
Q 1097 3394 1784 3394 
Q 2450 3394 2872 2941 
Q 3294 2488 3294 1666 
Q 3294 1616 3291 1516 
L 816 1516 
Q 847 969 1125 678 
Q 1403 388 1819 388 
Q 2128 388 2347 550 
Q 2566 713 2694 1069 
z
M 847 1978 
L 2700 1978 
Q 2663 2397 2488 2606 
Q 2219 2931 1791 2931 
Q 1403 2931 1139 2672 
Q 875 2413 847 1978 
z
" transform="scale(0.015625)"/>
       <path id="ArialMT-76" d="M 1344 0 
L 81 3319 
L 675 3319 
L 1388 1331 
Q 1503 1009 1600 663 
Q 1675 925 1809 1294 
L 2547 3319 
L 3125 3319 
L 1869 0 
L 1344 0 
z
" transform="scale(0.015625)"/>
       <path id="ArialMT-61" d="M 2588 409 
Q 2275 144 1986 34 
Q 1697 -75 1366 -75 
Q 819 -75 525 192 
Q 231 459 231 875 
Q 231 1119 342 1320 
Q 453 1522 633 1644 
Q 813 1766 1038 1828 
Q 1203 1872 1538 1913 
Q 2219 1994 2541 2106 
Q 2544 2222 2544 2253 
Q 2544 2597 2384 2738 
Q 2169 2928 1744 2928 
Q 1347 2928 1158 2789 
Q 969 2650 878 2297 
L 328 2372 
Q 403 2725 575 2942 
Q 747 3159 1072 3276 
Q 1397 3394 1825 3394 
Q 2250 3394 2515 3294 
Q 2781 3194 2906 3042 
Q 3031 2891 3081 2659 
Q 3109 2516 3109 2141 
L 3109 1391 
Q 3109 606 3145 398 
Q 3181 191 3288 0 
L 2700 0 
Q 2613 175 2588 409 
z
M 2541 1666 
Q 2234 1541 1622 1453 
Q 1275 1403 1131 1340 
Q 988 1278 909 1158 
Q 831 1038 831 891 
Q 831 666 1001 516 
Q 1172 366 1500 366 
Q 1825 366 2078 508 
Q 2331 650 2450 897 
Q 2541 1088 2541 1459 
L 2541 1666 
z
" transform="scale(0.015625)"/>
       <path id="ArialMT-73" d="M 197 991 
L 753 1078 
Q 800 744 1014 566 
Q 1228 388 1613 388 
Q 2000 388 2187 545 
Q 2375 703 2375 916 
Q 2375 1106 2209 1216 
Q 2094 1291 1634 1406 
Q 1016 1563 777 1677 
Q 538 1791 414 1992 
Q 291 2194 291 2438 
Q 291 2659 392 2848 
Q 494 3038 669 3163 
Q 800 3259 1026 3326 
Q 1253 3394 1513 3394 
Q 1903 3394 2198 3281 
Q 2494 3169 2634 2976 
Q 2775 2784 2828 2463 
L 2278 2388 
Q 2241 2644 2061 2787 
Q 1881 2931 1553 2931 
Q 1166 2931 1000 2803 
Q 834 2675 834 2503 
Q 834 2394 903 2306 
Q 972 2216 1119 2156 
Q 1203 2125 1616 2013 
Q 2213 1853 2448 1751 
Q 2684 1650 2818 1456 
Q 2953 1263 2953 975 
Q 2953 694 2789 445 
Q 2625 197 2315 61 
Q 2006 -75 1616 -75 
Q 969 -75 630 194 
Q 291 463 197 991 
z
" transform="scale(0.015625)"/>
       <path id="ArialMT-20" transform="scale(0.015625)"/>
       <path id="ArialMT-4d" d="M 475 0 
L 475 4581 
L 1388 4581 
L 2472 1338 
Q 2622 884 2691 659 
Q 2769 909 2934 1394 
L 4031 4581 
L 4847 4581 
L 4847 0 
L 4263 0 
L 4263 3834 
L 2931 0 
L 2384 0 
L 1059 3900 
L 1059 0 
L 475 0 
z
" transform="scale(0.015625)"/>
       <path id="ArialMT-72" d="M 416 0 
L 416 3319 
L 922 3319 
L 922 2816 
Q 1116 3169 1280 3281 
Q 1444 3394 1641 3394 
Q 1925 3394 2219 3213 
L 2025 2691 
Q 1819 2813 1613 2813 
Q 1428 2813 1281 2702 
Q 1134 2591 1072 2394 
Q 978 2094 978 1738 
L 978 0 
L 416 0 
z
" transform="scale(0.015625)"/>
       <path id="ArialMT-74" d="M 1650 503 
L 1731 6 
Q 1494 -44 1306 -44 
Q 1000 -44 831 53 
Q 663 150 594 308 
Q 525 466 525 972 
L 525 2881 
L 113 2881 
L 113 3319 
L 525 3319 
L 525 4141 
L 1084 4478 
L 1084 3319 
L 1650 3319 
L 1650 2881 
L 1084 2881 
L 1084 941 
Q 1084 700 1114 631 
Q 1144 563 1211 522 
Q 1278 481 1403 481 
Q 1497 481 1650 503 
z
" transform="scale(0.015625)"/>
      </defs>
      <use xlink:href="#ArialMT-4e"/>
      <use xlink:href="#ArialMT-75" x="72.216797"/>
      <use xlink:href="#ArialMT-65" x="127.832031"/>
      <use xlink:href="#ArialMT-76" x="183.447266"/>
      <use xlink:href="#ArialMT-61" x="233.447266"/>
      <use xlink:href="#ArialMT-73" x="289.0625"/>
      <use xlink:href="#ArialMT-20" x="339.0625"/>
      <use xlink:href="#ArialMT-4d" x="366.845703"/>
      <use xlink:href="#ArialMT-75" x="450.146484"/>
      <use xlink:href="#ArialMT-65" x="505.761719"/>
      <use xlink:href="#ArialMT-72" x="561.376953"/>
      <use xlink:href="#ArialMT-74" x="594.677734"/>
      <use xlink:href="#ArialMT-65" x="622.460938"/>
      <use xlink:href="#ArialMT-73" x="678.076172"/>
     </g>
    </g>
   </g>
  </g>
  <g id="axes_2">
   <g id="patch_6">
    <path d="M 53.402188 341.433354 
L 723.002187 341.433354 
L 723.002187 190.233354 
L 53.402188 190.233354 
z
" style="fill: #ffffff"/>
   </g>
   <g id="matplotlib.axis_3">
    <g id="xtick_31">
     <g id="text_8">
      <!-- 2020/03 -->
      <g style="fill: #262626" transform="translate(48.741307 358.806948) scale(0.11 -0.11)">
       <defs>
        <path id="ArialMT-2f" d="M 0 -78 
L 1328 4659 
L 1778 4659 
L 453 -78 
L 0 -78 
z
" transform="scale(0.015625)"/>
        <path id="ArialMT-33" d="M 269 1209 
L 831 1284 
Q 928 806 1161 595 
Q 1394 384 1728 384 
Q 2125 384 2398 659 
Q 2672 934 2672 1341 
Q 2672 1728 2419 1979 
Q 2166 2231 1775 2231 
Q 1616 2231 1378 2169 
L 1441 2663 
Q 1497 2656 1531 2656 
Q 1891 2656 2178 2843 
Q 2466 3031 2466 3422 
Q 2466 3731 2256 3934 
Q 2047 4138 1716 4138 
Q 1388 4138 1169 3931 
Q 950 3725 888 3313 
L 325 3413 
Q 428 3978 793 4289 
Q 1159 4600 1703 4600 
Q 2078 4600 2393 4439 
Q 2709 4278 2876 4000 
Q 3044 3722 3044 3409 
Q 3044 3113 2884 2869 
Q 2725 2625 2413 2481 
Q 2819 2388 3044 2092 
Q 3269 1797 3269 1353 
Q 3269 753 2831 336 
Q 2394 -81 1725 -81 
Q 1122 -81 723 278 
Q 325 638 269 1209 
z
" transform="scale(0.015625)"/>
       </defs>
       <use xlink:href="#ArialMT-32"/>
       <use xlink:href="#ArialMT-30" x="55.615234"/>
       <use xlink:href="#ArialMT-32" x="111.230469"/>
       <use xlink:href="#ArialMT-30" x="166.845703"/>
       <use xlink:href="#ArialMT-2f" x="222.460938"/>
       <use xlink:href="#ArialMT-30" x="250.244141"/>
       <use xlink:href="#ArialMT-33" x="305.859375"/>
      </g>
     </g>
    </g>
    <g id="xtick_32">
     <g id="text_9">
      <!-- 2020/06 -->
      <g style="fill: #262626" transform="translate(114.686761 358.806948) scale(0.11 -0.11)">
       <use xlink:href="#ArialMT-32"/>
       <use xlink:href="#ArialMT-30" x="55.615234"/>
       <use xlink:href="#ArialMT-32" x="111.230469"/>
       <use xlink:href="#ArialMT-30" x="166.845703"/>
       <use xlink:href="#ArialMT-2f" x="222.460938"/>
       <use xlink:href="#ArialMT-30" x="250.244141"/>
       <use xlink:href="#ArialMT-36" x="305.859375"/>
      </g>
     </g>
    </g>
    <g id="xtick_33">
     <g id="text_10">
      <!-- 2020/09 -->
      <g style="fill: #262626" transform="translate(180.632216 358.806948) scale(0.11 -0.11)">
       <defs>
        <path id="ArialMT-39" d="M 350 1059 
L 891 1109 
Q 959 728 1153 556 
Q 1347 384 1650 384 
Q 1909 384 2104 503 
Q 2300 622 2425 820 
Q 2550 1019 2634 1356 
Q 2719 1694 2719 2044 
Q 2719 2081 2716 2156 
Q 2547 1888 2255 1720 
Q 1963 1553 1622 1553 
Q 1053 1553 659 1965 
Q 266 2378 266 3053 
Q 266 3750 677 4175 
Q 1088 4600 1706 4600 
Q 2153 4600 2523 4359 
Q 2894 4119 3086 3673 
Q 3278 3228 3278 2384 
Q 3278 1506 3087 986 
Q 2897 466 2520 194 
Q 2144 -78 1638 -78 
Q 1100 -78 759 220 
Q 419 519 350 1059 
z
M 2653 3081 
Q 2653 3566 2395 3850 
Q 2138 4134 1775 4134 
Q 1400 4134 1122 3828 
Q 844 3522 844 3034 
Q 844 2597 1108 2323 
Q 1372 2050 1759 2050 
Q 2150 2050 2401 2323 
Q 2653 2597 2653 3081 
z
" transform="scale(0.015625)"/>
       </defs>
       <use xlink:href="#ArialMT-32"/>
       <use xlink:href="#ArialMT-30" x="55.615234"/>
       <use xlink:href="#ArialMT-32" x="111.230469"/>
       <use xlink:href="#ArialMT-30" x="166.845703"/>
       <use xlink:href="#ArialMT-2f" x="222.460938"/>
       <use xlink:href="#ArialMT-30" x="250.244141"/>
       <use xlink:href="#ArialMT-39" x="305.859375"/>
      </g>
     </g>
    </g>
    <g id="xtick_34">
     <g id="text_11">
      <!-- 2020/12 -->
      <g style="fill: #262626" transform="translate(246.57767 358.806948) scale(0.11 -0.11)">
       <use xlink:href="#ArialMT-32"/>
       <use xlink:href="#ArialMT-30" x="55.615234"/>
       <use xlink:href="#ArialMT-32" x="111.230469"/>
       <use xlink:href="#ArialMT-30" x="166.845703"/>
       <use xlink:href="#ArialMT-2f" x="222.460938"/>
       <use xlink:href="#ArialMT-31" x="250.244141"/>
       <use xlink:href="#ArialMT-32" x="305.859375"/>
      </g>
     </g>
    </g>
    <g id="xtick_35">
     <g id="text_12">
      <!-- 2021/03 -->
      <g style="fill: #262626" transform="translate(312.523125 358.806948) scale(0.11 -0.11)">
       <use xlink:href="#ArialMT-32"/>
       <use xlink:href="#ArialMT-30" x="55.615234"/>
       <use xlink:href="#ArialMT-32" x="111.230469"/>
       <use xlink:href="#ArialMT-31" x="166.845703"/>
       <use xlink:href="#ArialMT-2f" x="222.460938"/>
       <use xlink:href="#ArialMT-30" x="250.244141"/>
       <use xlink:href="#ArialMT-33" x="305.859375"/>
      </g>
     </g>
    </g>
    <g id="xtick_36">
     <g id="text_13">
      <!-- 2021/06 -->
      <g style="fill: #262626" transform="translate(378.46858 358.806948) scale(0.11 -0.11)">
       <use xlink:href="#ArialMT-32"/>
       <use xlink:href="#ArialMT-30" x="55.615234"/>
       <use xlink:href="#ArialMT-32" x="111.230469"/>
       <use xlink:href="#ArialMT-31" x="166.845703"/>
       <use xlink:href="#ArialMT-2f" x="222.460938"/>
       <use xlink:href="#ArialMT-30" x="250.244141"/>
       <use xlink:href="#ArialMT-36" x="305.859375"/>
      </g>
     </g>
    </g>
    <g id="xtick_37">
     <g id="text_14">
      <!-- 2021/09 -->
      <g style="fill: #262626" transform="translate(444.414034 358.806948) scale(0.11 -0.11)">
       <use xlink:href="#ArialMT-32"/>
       <use xlink:href="#ArialMT-30" x="55.615234"/>
       <use xlink:href="#ArialMT-32" x="111.230469"/>
       <use xlink:href="#ArialMT-31" x="166.845703"/>
       <use xlink:href="#ArialMT-2f" x="222.460938"/>
       <use xlink:href="#ArialMT-30" x="250.244141"/>
       <use xlink:href="#ArialMT-39" x="305.859375"/>
      </g>
     </g>
    </g>
    <g id="xtick_38">
     <g id="text_15">
      <!-- 2021/12 -->
      <g style="fill: #262626" transform="translate(510.359489 358.806948) scale(0.11 -0.11)">
       <use xlink:href="#ArialMT-32"/>
       <use xlink:href="#ArialMT-30" x="55.615234"/>
       <use xlink:href="#ArialMT-32" x="111.230469"/>
       <use xlink:href="#ArialMT-31" x="166.845703"/>
       <use xlink:href="#ArialMT-2f" x="222.460938"/>
       <use xlink:href="#ArialMT-31" x="250.244141"/>
       <use xlink:href="#ArialMT-32" x="305.859375"/>
      </g>
     </g>
    </g>
    <g id="xtick_39">
     <g id="text_16">
      <!-- 2022/03 -->
      <g style="fill: #262626" transform="translate(576.304943 358.806948) scale(0.11 -0.11)">
       <use xlink:href="#ArialMT-32"/>
       <use xlink:href="#ArialMT-30" x="55.615234"/>
       <use xlink:href="#ArialMT-32" x="111.230469"/>
       <use xlink:href="#ArialMT-32" x="166.845703"/>
       <use xlink:href="#ArialMT-2f" x="222.460938"/>
       <use xlink:href="#ArialMT-30" x="250.244141"/>
       <use xlink:href="#ArialMT-33" x="305.859375"/>
      </g>
     </g>
    </g>
    <g id="xtick_40">
     <g id="text_17">
      <!-- 2022/06 -->
      <g style="fill: #262626" transform="translate(642.250398 358.806948) scale(0.11 -0.11)">
       <use xlink:href="#ArialMT-32"/>
       <use xlink:href="#ArialMT-30" x="55.615234"/>
       <use xlink:href="#ArialMT-32" x="111.230469"/>
       <use xlink:href="#ArialMT-32" x="166.845703"/>
       <use xlink:href="#ArialMT-2f" x="222.460938"/>
       <use xlink:href="#ArialMT-30" x="250.244141"/>
       <use xlink:href="#ArialMT-36" x="305.859375"/>
      </g>
     </g>
    </g>
    <g id="xtick_41"/>
    <g id="xtick_42"/>
    <g id="xtick_43"/>
    <g id="xtick_44"/>
    <g id="xtick_45"/>
    <g id="xtick_46"/>
    <g id="xtick_47"/>
    <g id="xtick_48"/>
    <g id="xtick_49"/>
    <g id="xtick_50"/>
    <g id="xtick_51"/>
    <g id="xtick_52"/>
    <g id="xtick_53"/>
    <g id="xtick_54"/>
    <g id="xtick_55"/>
    <g id="xtick_56"/>
    <g id="xtick_57"/>
    <g id="xtick_58"/>
    <g id="xtick_59"/>
    <g id="xtick_60"/>
   </g>
   <g id="matplotlib.axis_4">
    <g id="ytick_7">
     <g id="text_18">
      <!-- 0 -->
      <g style="fill: #262626" transform="translate(37.785156 338.515805) scale(0.11 -0.11)">
       <use xlink:href="#ArialMT-30"/>
      </g>
     </g>
    </g>
    <g id="ytick_8">
     <g id="text_19">
      <!-- 20000 -->
      <g style="fill: #262626" transform="translate(13.317031 312.255707) scale(0.11 -0.11)">
       <use xlink:href="#ArialMT-32"/>
       <use xlink:href="#ArialMT-30" x="55.615234"/>
       <use xlink:href="#ArialMT-30" x="111.230469"/>
       <use xlink:href="#ArialMT-30" x="166.845703"/>
       <use xlink:href="#ArialMT-30" x="222.460938"/>
      </g>
     </g>
    </g>
    <g id="ytick_9">
     <g id="text_20">
      <!-- 40000 -->
      <g style="fill: #262626" transform="translate(13.317031 285.995609) scale(0.11 -0.11)">
       <use xlink:href="#ArialMT-34"/>
       <use xlink:href="#ArialMT-30" x="55.615234"/>
       <use xlink:href="#ArialMT-30" x="111.230469"/>
       <use xlink:href="#ArialMT-30" x="166.845703"/>
       <use xlink:href="#ArialMT-30" x="222.460938"/>
      </g>
     </g>
    </g>
    <g id="ytick_10">
     <g id="text_21">
      <!-- 60000 -->
      <g style="fill: #262626" transform="translate(13.317031 259.735511) scale(0.11 -0.11)">
       <use xlink:href="#ArialMT-36"/>
       <use xlink:href="#ArialMT-30" x="55.615234"/>
       <use xlink:href="#ArialMT-30" x="111.230469"/>
       <use xlink:href="#ArialMT-30" x="166.845703"/>
       <use xlink:href="#ArialMT-30" x="222.460938"/>
      </g>
     </g>
    </g>
    <g id="ytick_11">
     <g id="text_22">
      <!-- 80000 -->
      <g style="fill: #262626" transform="translate(13.317031 233.475412) scale(0.11 -0.11)">
       <use xlink:href="#ArialMT-38"/>
       <use xlink:href="#ArialMT-30" x="55.615234"/>
       <use xlink:href="#ArialMT-30" x="111.230469"/>
       <use xlink:href="#ArialMT-30" x="166.845703"/>
       <use xlink:href="#ArialMT-30" x="222.460938"/>
      </g>
     </g>
    </g>
    <g id="ytick_12">
     <g id="text_23">
      <!-- 100000 -->
      <g style="fill: #262626" transform="translate(7.2 207.215314) scale(0.11 -0.11)">
       <use xlink:href="#ArialMT-31"/>
       <use xlink:href="#ArialMT-30" x="55.615234"/>
       <use xlink:href="#ArialMT-30" x="111.230469"/>
       <use xlink:href="#ArialMT-30" x="166.845703"/>
       <use xlink:href="#ArialMT-30" x="222.460938"/>
       <use xlink:href="#ArialMT-30" x="278.076172"/>
      </g>
     </g>
    </g>
   </g>
   <g id="line2d_3">
    <path d="M 53.402188 334.560626 
L 63.547642 332.101368 
L 73.693097 327.302335 
L 83.838551 329.698569 
L 93.984006 316.962422 
L 104.12946 325.088609 
L 114.274915 326.223045 
L 124.420369 324.705212 
L 134.565824 319.718419 
L 144.711278 318.750734 
L 154.856733 318.152004 
L 165.002188 314.860301 
L 175.147642 318.683771 
L 185.293097 316.325614 
L 195.438551 313.37004 
L 205.584006 318.44743 
L 215.72946 315.406511 
L 225.874915 317.152807 
L 236.020369 320.482588 
L 246.165824 318.356833 
L 256.311278 323.734901 
L 266.456733 323.606226 
L 276.602188 312.431242 
L 286.747642 309.177615 
L 296.893097 313.052293 
L 307.038551 309.7212 
L 317.184006 313.484272 
L 327.32946 305.350206 
L 337.474915 305.253044 
L 347.620369 299.725293 
L 357.765824 299.214534 
L 367.911278 310.216202 
L 378.056733 316.850816 
L 388.202188 316.081395 
L 398.347642 313.963518 
L 408.493097 316.298041 
L 418.638551 319.436123 
L 428.784006 324.774801 
L 438.92946 326.602504 
L 449.074915 329.145794 
L 459.220369 330.144991 
L 469.365824 330.129235 
L 479.511278 329.867947 
L 489.656733 329.52394 
L 499.802188 328.183362 
L 509.947642 328.019236 
L 520.093097 324.491192 
L 530.238551 314.500537 
L 540.384006 239.077596 
L 550.52946 197.106081 
L 560.674915 243.482728 
L 570.820369 290.899274 
L 580.965824 312.285498 
L 591.111278 322.06082 
L 601.256733 326.250618 
L 611.402188 330.611108 
L 621.547642 330.976123 
L 631.693097 329.73402 
L 641.838551 320.662469 
L 651.984006 317.311681 
L 662.12946 314.451956 
L 672.274915 305.662701 
L 682.420369 285.983384 
L 692.565824 320.518039 
L 702.711278 319.340274 
L 712.856733 328.568072 
L 723.002188 334.431952 
" clip-path="url(#paed7aecf5e)" style="fill: none; stroke: #dd8452; stroke-width: 1.5; stroke-linecap: round"/>
   </g>
   <g id="patch_7">
    <path d="M 53.402188 341.433354 
L 53.402188 190.233354 
" style="fill: none; stroke: #cccccc; stroke-width: 1.25; stroke-linejoin: miter; stroke-linecap: square"/>
   </g>
   <g id="patch_8">
    <path d="M 53.402188 341.433354 
L 723.002188 341.433354 
" style="fill: none; stroke: #cccccc; stroke-width: 1.25; stroke-linejoin: miter; stroke-linecap: square"/>
   </g>
   <g id="legend_2">
    <g id="patch_9">
     <path d="M 595.735625 214.593198 
L 715.302187 214.593198 
Q 717.502187 214.593198 717.502187 212.393198 
L 717.502187 197.933354 
Q 717.502187 195.733354 715.302187 195.733354 
L 595.735625 195.733354 
Q 593.535625 195.733354 593.535625 197.933354 
L 593.535625 212.393198 
Q 593.535625 214.593198 595.735625 214.593198 
z
" style="fill: #ffffff; opacity: 0.8; stroke: #cccccc; stroke-linejoin: miter"/>
    </g>
    <g id="line2d_4">
     <path d="M 597.935625 204.156948 
L 608.935625 204.156948 
L 619.935625 204.156948 
" style="fill: none; stroke: #dd8452; stroke-width: 1.5; stroke-linecap: round"/>
    </g>
    <g id="text_24">
     <!-- Nuevos Positivos -->
     <g style="fill: #262626" transform="translate(628.735625 208.006948) scale(0.11 -0.11)">
      <defs>
       <path id="ArialMT-6f" d="M 213 1659 
Q 213 2581 725 3025 
Q 1153 3394 1769 3394 
Q 2453 3394 2887 2945 
Q 3322 2497 3322 1706 
Q 3322 1066 3130 698 
Q 2938 331 2570 128 
Q 2203 -75 1769 -75 
Q 1072 -75 642 372 
Q 213 819 213 1659 
z
M 791 1659 
Q 791 1022 1069 705 
Q 1347 388 1769 388 
Q 2188 388 2466 706 
Q 2744 1025 2744 1678 
Q 2744 2294 2464 2611 
Q 2184 2928 1769 2928 
Q 1347 2928 1069 2612 
Q 791 2297 791 1659 
z
" transform="scale(0.015625)"/>
       <path id="ArialMT-50" d="M 494 0 
L 494 4581 
L 2222 4581 
Q 2678 4581 2919 4538 
Q 3256 4481 3484 4323 
Q 3713 4166 3852 3881 
Q 3991 3597 3991 3256 
Q 3991 2672 3619 2267 
Q 3247 1863 2275 1863 
L 1100 1863 
L 1100 0 
L 494 0 
z
M 1100 2403 
L 2284 2403 
Q 2872 2403 3119 2622 
Q 3366 2841 3366 3238 
Q 3366 3525 3220 3729 
Q 3075 3934 2838 4000 
Q 2684 4041 2272 4041 
L 1100 4041 
L 1100 2403 
z
" transform="scale(0.015625)"/>
       <path id="ArialMT-69" d="M 425 3934 
L 425 4581 
L 988 4581 
L 988 3934 
L 425 3934 
z
M 425 0 
L 425 3319 
L 988 3319 
L 988 0 
L 425 0 
z
" transform="scale(0.015625)"/>
      </defs>
      <use xlink:href="#ArialMT-4e"/>
      <use xlink:href="#ArialMT-75" x="72.216797"/>
      <use xlink:href="#ArialMT-65" x="127.832031"/>
      <use xlink:href="#ArialMT-76" x="183.447266"/>
      <use xlink:href="#ArialMT-6f" x="233.447266"/>
      <use xlink:href="#ArialMT-73" x="289.0625"/>
      <use xlink:href="#ArialMT-20" x="339.0625"/>
      <use xlink:href="#ArialMT-50" x="366.845703"/>
      <use xlink:href="#ArialMT-6f" x="433.544922"/>
      <use xlink:href="#ArialMT-73" x="489.160156"/>
      <use xlink:href="#ArialMT-69" x="539.160156"/>
      <use xlink:href="#ArialMT-74" x="561.376953"/>
      <use xlink:href="#ArialMT-69" x="589.160156"/>
      <use xlink:href="#ArialMT-76" x="611.376953"/>
      <use xlink:href="#ArialMT-6f" x="661.376953"/>
      <use xlink:href="#ArialMT-73" x="716.992188"/>
     </g>
    </g>
   </g>
  </g>
 </g>
 <defs>
  <clipPath id="p4b1cb92d95">
   <rect x="53.402188" y="8.793354" width="669.6" height="151.2"/>
  </clipPath>
  <clipPath id="paed7aecf5e">
   <rect x="53.402188" y="190.233354" width="669.6" height="151.2"/>
  </clipPath>
 </defs>
</svg>
